<?xml version="1.0"?>
<svg width="560" height="560" xmlns="http://www.w3.org/2000/svg" xmlns:svg="http://www.w3.org/2000/svg">
 <g>
  <title>Layer 1</title>
  <g id="svg_1" stroke="null">
   <g id="XMLID_1_" stroke="null">
    <g id="svg_2" stroke="null">
     <path id="svg_3" d="m487.437012,309.071503c8.136444,4.881805 -5.966705,34.71524 -8.949951,37.427368c-2.983398,2.712158 -5.966736,3.796997 -13.96756,18.849304c-8.000732,15.052338 -11.797699,33.766052 -38.783447,30.104675s-79.601044,-13.560669 -108.349609,-27.256927c-28.748566,-13.696259 -26.307678,-22.510681 -27.121246,-29.833405c-0.81369,-7.322784 -6.237915,-53.428986 -8.000885,-55.463074c-1.762848,-4.339417 -14.238678,-7.322784 -18.713654,-4.203796c-2.576508,0.949188 -30.511475,37.291779 -34.850891,43.258453c-4.339401,5.966644 -6.780334,14.781067 -38.512253,12.34021c-31.731918,-2.576508 -82.313133,-20.205383 -107.400345,-30.511475c-25.087212,-10.306122 -19.256149,-28.341766 -18.578117,-45.428223c0.67804,-17.086395 -1.491634,-19.391708 -2.712124,-23.32431c-1.220448,-3.932587 3.932621,-36.478149 10.984142,-36.884979c7.051552,-0.406799 32.409935,-2.034088 88.551125,13.560654c42.580399,11.933365 70.78653,25.494049 90.178329,34.308472c14.103043,6.37352 20.205338,10.577286 27.256912,13.018204c7.322784,1.35611 14.781128,0.81369 30.104645,2.305298c21.154541,2.169739 52.479614,4.339447 95.33139,15.459198c56.547882,14.238678 77.431244,28.612946 83.533508,32.274353l0.000031,0zm-27.121277,12.475739c4.746216,-17.764435 -36.342529,-27.121307 -74.583588,-37.291779c-25.358429,-6.780304 -36.071289,-9.085663 -50.310028,-9.628052c-14.238678,-0.40683 -26.307678,2.440857 -29.290985,13.425018c-2.983398,10.984131 -3.525818,39.868286 0.27121,54.378235c3.796997,14.509888 28.612915,23.324341 57.768341,31.189514c29.155334,7.865143 48.14032,11.79776 67.396454,6.915894c19.391815,-5.017395 24.00238,-41.224335 28.748596,-58.988831zm-219.140091,-50.988037c2.983353,-10.984161 -6.10231,-19.527359 -18.57814,-26.307663c-12.611389,-6.780334 -22.917496,-10.034912 -48.275879,-16.815231c-38.241058,-10.306091 -78.516212,-22.781876 -83.262444,-5.017471c-4.746231,17.764511 -18.849304,51.394913 -4.746231,65.362411c14.238693,13.831818 32.681168,19.934113 61.836571,27.799347c29.155411,7.865112 55.056274,12.4758 65.63356,1.898468c10.441727,-10.577301 24.40918,-35.93573 27.392548,-46.919922l0,0.000061l0.000015,0z" stroke="null"/>
     <path id="svg_4" d="m337.185059,40.97736c106.58667,28.477367 169.914917,138.86108 141.166321,245.9902c-0.813599,3.254578 -4.203796,5.153076 -7.322693,4.203827c-3.254578,-0.81366 -5.153015,-4.203827 -4.203857,-7.322754c26.985748,-100.755615 -32.545593,-204.494606 -132.758728,-231.344704c-100.213257,-26.85009 -203.54541,33.223595 -230.531143,133.979225c-0.813606,3.254593 -4.203781,5.153061 -7.322746,4.203842c-3.254524,-0.81366 -5.15303,-4.203842 -4.203819,-7.322769c28.477417,-106.99353 138.589935,-170.864198 245.176666,-142.386826l0,-0.000053l0,0.000011z" stroke="null"/>
     <path id="svg_5" d="m369.052551,430.84613c9.492462,12.747009 15.594788,22.510712 9.628052,44.750153c-5.966644,22.103821 -37.834167,46.513092 -51.666046,47.733429c-13.831879,1.22052 -34.986511,-2.305237 -52.886566,-6.102234c-17.900116,-3.661316 -32.274338,-10.30603 -43.394073,-19.256104c-7.187164,-5.831055 -10.984161,-13.15387 -12.747025,-17.628845c-3.797012,2.983337 -10.848511,7.458313 -19.934174,8.814453c-14.103058,2.169647 -29.833435,0.677917 -47.19104,-5.153076c-17.357666,-5.695526 -37.427422,-13.289459 -48.818359,-21.154633c-11.390938,-7.865173 -26.850121,-45.021393 -20.883392,-67.125244s16.001556,-27.528137 30.647041,-33.901611c14.645561,-6.373505 45.56385,2.983337 48.682793,13.560669c3.118927,10.577271 -8.272034,12.882599 -10.034927,9.221191c-1.762878,-3.661316 -15.865921,-11.25531 -22.510674,-12.475739c-6.644737,-1.22052 -27.799332,1.220428 -28.612984,21.968201c-0.678017,20.883392 19.662964,25.222839 35.393326,25.087219c15.730331,-0.13559 32.003098,-8.678802 57.768341,-3.932587c22.375092,4.068207 33.901642,20.069763 36.47818,24.137939c4.203781,-2.169647 22.103867,-10.306061 43.665298,-2.712128c24.68042,8.814423 34.444031,24.40918 48.0047,32.274353c13.560669,8.000824 33.359222,14.374329 43.258514,-4.068176c9.763672,-18.442444 -7.322784,-31.053894 -13.69632,-33.359161c-6.373444,-2.305359 -22.510651,-2.712219 -25.765167,-0.40686c-3.254547,2.305328 -12.06897,-5.424225 -4.068237,-13.018219c7.729553,-7.458344 39.190308,-0.13559 48.682739,12.747009z" stroke="null"/>
    </g>
    <g id="svg_6" stroke="null"/>
   </g>
  </g>
 </g>
</svg>