<?xml version="1.0" encoding="UTF-8" standalone="no"?>
<svg
   xmlns:svg="http://www.w3.org/2000/svg"
   xmlns="http://www.w3.org/2000/svg"
   xmlns:sodipodi="http://sodipodi.sourceforge.net/DTD/sodipodi-0.dtd"
   xmlns:inkscape="http://www.inkscape.org/namespaces/inkscape"
   version="1.0"
   width="428.000000pt"
   height="207.000000pt"
   viewBox="0 0 428.000000 207.000000"
   preserveAspectRatio="xMidYMid meet"
   id="svg3980"
   inkscape:version="0.48.4 r9939"
   sodipodi:docname="XFL_Logo.svg">
  <defs
     id="defs4008" />
  <sodipodi:namedview
     pagecolor="#ffffff"
     bordercolor="#666666"
     borderopacity="1"
     objecttolerance="10"
     gridtolerance="10"
     guidetolerance="10"
     inkscape:pageopacity="0"
     inkscape:pageshadow="2"
     inkscape:window-width="1366"
     inkscape:window-height="706"
     id="namedview4006"
     showgrid="false"
     inkscape:zoom="2.0057971"
     inkscape:cx="267.5"
     inkscape:cy="129.375"
     inkscape:window-x="-8"
     inkscape:window-y="-8"
     inkscape:window-maximized="1"
     inkscape:current-layer="svg3980" />
  <g
     transform="translate(0.000000,207.000000) scale(0.100000,-0.100000)"
     fill="#000000"
     stroke="none"
     id="g3984">
    <path
       d="M631 1695 l374 -245 445 0 c372 0 442 2 430 13 -8 8 -176 118 -372 245 l-358 232 -446 0 -447 0 374 -245z"
       id="path3988" />
    <path
       d="M2584 1698 l-349 -243 379 -3 378 -2 344 240 c189 133 344 243 344 245 0 3 -168 5 -374 5 l-373 0 -349 -242z"
       id="path3990" />
    <path
       d="m 125,1429 c -9,-13 -8,-13 33,-25 33,-9 455,-360 450,-374 -7,-17 -504,-409 -522,-412 -11,-2 -21,-9 -24,-15 -3,-10 62,-13 302,-13 265,0 306,2 306,15 0,10 -10,15 -30,15 -16,0 -30,4 -30,8 0,9 71,78 161,155 l 66,57 69,-51 c 85,-63 164,-139 164,-156 0,-7 -9,-13 -20,-13 -11,0 -20,-7 -20,-15 0,-13 67,-15 540,-15 473,0 540,2 540,15 0,10 -10,15 -28,15 -48,0 -52,13 -52,162 l 0,138 239,0 c 204,0 242,-2 255,-16 9,-8 16,-20 16,-25 0,-5 7,-9 15,-9 13,0 15,22 15,140 0,106 -3,140 -13,140 -7,0 -18,-9 -25,-20 -12,-19 -23,-20 -257,-20 l -245,0 0,60 0,60 390,0 c 378,0 391,-1 407,-20 36,-42 43,-26 43,91 l 0,112 32,-7 c 60,-12 58,4 58,-396 0,-391 1,-384 -49,-392 -14,-1 -26,-9 -29,-15 -3,-10 122,-13 603,-13 l 606,0 23,-25 c 42,-46 46,-36 46,125 0,121 -3,150 -14,150 -7,0 -21,-11 -30,-25 l -16,-25 -380,0 -380,0 2,303 3,302 33,10 c 18,5 31,14 29,20 -5,15 -2419,14 -2424,-2 -3,-7 8,-13 24,-15 18,-2 28,-9 28,-20 0,-16 -166,-158 -185,-158 -11,0 -114,86 -155,129 -25,27 -27,33 -15,41 8,5 23,10 33,10 9,0 17,7 17,15 0,13 -40,15 -299,15 -202,0 -302,-3 -306,-11 z m 1535,-34 c 15,-10 13,-748 -2,-763 -7,-7 -26,-12 -43,-12 -25,0 -75,37 -278,206 -136,113 -247,209 -247,213 0,10 402,338 439,358 25,14 108,12 131,-2 z"
       id="path3992"
       style="fill:#ed171f"
       inkscape:connector-curvature="0" />
    <path
       d="M1534 1377 c-28 -16 -183 -140 -183 -147 -1 -3 60 -45 135 -94 74 -49 137 -92 139 -96 2 -4 -56 -49 -130 -100 -74 -51 -135 -96 -135 -100 0 -4 52 -50 116 -104 88 -73 123 -96 145 -96 l29 0 0 369 0 369 -22 6 c-35 9 -71 7 -94 -7z"
       id="path3994" />
    <path
       d="M2052 1168 l3 -43 206 -3 c209 -2 259 4 259 33 0 11 11 15 38 15 21 0 48 9 62 20 25 20 25 20 -273 20 l-298 0 3 -42z"
       id="path4000" />
    <path
       d="M2590 931 l0 -71 -34 0 c-25 0 -35 5 -39 20 -5 19 -14 20 -236 20 l-231 0 0 -67 1 -68 509 -333 510 -332 451 2 452 3 -358 233 -358 232 -199 0 -199 0 3 33 c3 28 7 33 38 37 l35 5 3 66 3 65 -153 99 c-84 54 -163 105 -175 113 l-23 14 0 -71z"
       id="path4002" />
    <path
       d="M648 352 c-197 -136 -357 -250 -358 -254 0 -5 170 -8 378 -8 l379 0 340 238 341 237 -358 3 c-307 2 -359 4 -362 17 -2 10 -116 -64 -360 -233z"
       id="path4004" />
  </g>
</svg>
